<svg id="Layer_1" data-name="Layer 1" xmlns="http://www.w3.org/2000/svg" viewBox="0 0 578 706.61"><defs><style>.cls-1{fill:#4e4d4d;}.cls-2{fill:#e36d26;}.cls-3{fill:#fefefd;}</style></defs><path class="cls-1" d="M397,32c3.6-1.45,6.35-4.06,8.86-6.88a3.46,3.46,0,0,1,3.87-1.34A57.87,57.87,0,0,1,423,28.92c28.53,14.22,56.24,29.93,83.56,46.34.71.43,1.6.65,1.94,1.35-15.93,6.74-30.7,15.6-45.26,24.78a111.64,111.64,0,0,0-30,27.21,97.45,97.45,0,0,0-14.88,29c-1.13,3.48-2.81,4.76-6.55,4.93a10.47,10.47,0,0,1-6.18-1.84,28.61,28.61,0,0,1-5-4.16,48,48,0,0,0-8.26-6.51,155.47,155.47,0,0,0-59.85-22.88,167.47,167.47,0,0,0-28.64-2c-.67,0-1.33,0-2,.07-2,.16-2,.17-2.17,2.11-.06.86-.06,1.71-.09,2.57-.3,8.35,0,16.71.16,25.06.06,2.35.06,2.43-2.32,2.76a264.22,264.22,0,0,0-27.85,5.67c-2.23.56-2.27.57-2.82-1.67-2-8-4.07-16-6.39-23.91-.43-1.45-.84-2.92-1.32-4.35-.63-1.89-.72-2-2.63-1.43-5.85,1.59-11.64,3.39-17.34,5.47-16.56,6.06-32.22,13.85-46.32,24.55-16.4,12.46-28.75,28.29-38.33,46.39-9.07,17.12-15.2,35.33-20,54q-4.86,19.19-7.81,38.75c-1,6.28-1.28,12.65-1.9,19-1.08,11-2.2,22.1-3.24,33.15-.84,9-1.88,17.95-2.3,26.95-.6,12.75-6.35,22.62-15.85,30.63A66.33,66.33,0,0,1,89,420a5.47,5.47,0,0,1-.24-2.58c.43-21.91-1.78-43.6-5.54-65.15-1.39-7.94-3.09-15.83-4.35-23.79-1.79-11.33-3.27-22.72-4.93-34.08-1-7.15-1-14.39-1.64-21.57-1.52-16.68-1-33.39-.76-50.1.11-7.32,1.19-14.57,2-21.82Q75.79,182.36,79.1,164q.89-4.91,1.81-9.79c.45-2.41.47-2.4,2.86-2.4a54.89,54.89,0,0,0,8-.4c-2-1-3.91-2.09-5.94-3-1.43-.61-1.72-1.29-1.18-2.8a124.24,124.24,0,0,1,5-12.38c3.17-6.58,6.44-13.11,9.61-19.69.58-1.2,1.15-1.7,2.6-1.37,2.5.56,5.06.82,7.59,1.19a9.09,9.09,0,0,0,3.1.17c-.26-1-1.06-1.45-1.58-2.07-1.22-1.46-2.56-2.82-3.69-4.34-1.64-2.2-1.62-2.76,0-5.07a93.88,93.88,0,0,1,8.08-9.93A289.69,289.69,0,0,1,141,66.69a61.78,61.78,0,0,1,7-5.35,3.32,3.32,0,0,1,3.7-.21c2.24,1.18,4.58,2.15,7.14,3.33a32.46,32.46,0,0,0-1.8-6.8,2.53,2.53,0,0,1,1-3.13,126.39,126.39,0,0,1,24-15.7c14.62-7.54,30-13.09,45.66-18.11,7.29-2.34,14.63-4.53,22.2-6.87,2.22,8,4.39,15.78,6.56,23.58l.46-.08c.13-3.11.31-6.21.41-9.32q.23-6.84.35-13.67a1.62,1.62,0,0,1,1.59-1.86c10-1.69,19.91-4,30.1-4.33,4.36-.16,8.72-.41,13.07-.61h14.82c10,.44,20.06,1,30.06,2.16a300.93,300.93,0,0,1,48.39,9.88c.27.08.54.18.81.27,2.31.71,2.31.71,1.84,3.08-.42,2.14-.88,4.27-1.22,6.42-.14.89-.64,1.81-.08,2.74-.13-.2-.26-.21-.36,0,0,.06,0,.15,0,.23Z"/><path class="cls-1" d="M573.66,701.07c-.67.69-.95-.1-1.31-.38C566,695.8,559.6,690.88,553.2,686a3.16,3.16,0,0,1-1.34-2.88c.27-10.34-.49-20.66-.39-31,.1-10.53-.12-21.06-.13-31.6,0-1.61-.34-2.54-2-3.21-4.29-1.75-8.46-3.79-12.7-5.66a3.41,3.41,0,0,0-2.33-.57c-.22,20.48.69,41,.73,61.73a14.58,14.58,0,0,1-3.64-2.1c-5.78-3.62-11.52-7.32-17.31-10.91a3.48,3.48,0,0,1-2-3.35c.06-6.83.13-13.67-.19-20.5-.41-8.71-.22-17.44-.58-26.15-.34-8.33-.28-16.67-.57-25-.31-8.72-.22-17.45-.61-26.15-.27-6.06-.07-12.12-.41-18.18a5.81,5.81,0,0,0-1.87-4c-1.86-1.9-3.68-3.84-5.66-5.61a5.1,5.1,0,0,1-2.06-4.66c.1-.92-.32-1.87,0-3,3.79-.08,7.59.6,11.4.93,6.12.53,12.22,1.3,18.33,2,.57.07,1.12.21,1.69.24.86,0,1.14.53,1.12,1.3,0,.28,0,.57,0,.85-.23,9.39.47,18.77.44,28.16,0,6,.09,11.95.13,17.93,0,.28,0,.57,0,.85.31,3.63.31,3.64,3.8,4.78,3.88,1.26,7.75,2.53,11.63,3.76,1.84.58,2,.51,2-1.41-.13-5.68.27-11.36-.29-17.05-.33-3.38,0-6.83-.07-10.25q-.08-11.67-.19-23.35c0-.57,0-1.14,0-1.71-.07-1.22.35-1.71,1.67-1.5,2.14.35,4.31.54,6.47.82,4.41.56,8.81,1.16,13.23,1.7,1.18.14,1.69.67,1.56,1.85a8.66,8.66,0,0,0,0,1.14q.09,43.72.21,87.45c0,1-.4,2.08.36,3Z"/><path class="cls-2" d="M449.89,206.94q7.22,89.64,14.45,179.36c-1.14-.06-1.36-.9-1.75-1.45q-21.46-30-42.94-60a4.55,4.55,0,0,1-.67-4.42c4.8-16.84,5.58-33.81,1.52-50.92a5.18,5.18,0,0,0-1.42-2.7c-8.56-8.26-17.61-15.91-28-21.88-6.78-3.91-13.9-6.91-21.74-8-9-1.21-17.18.8-24.3,6.49-7.66,6.14-12.14,14.44-15.54,23.44a2.33,2.33,0,0,0-.15,1.38c1.45,7,1.57,14.14,2,21.23.95,15.73,1.61,31.48,2.54,47.21.69,11.56,1.37,23.12,2.76,34.62.29,2.36.67,4.7,1.16,7,.73,3.47,1.48,3.9,4.95,2.87,1.81-.54,3.58-1.25,5.34-1.94,8.38-3.29,16.77-6.52,25.61-8.44,13-2.84,26-2.86,38.77,1.32a3.86,3.86,0,0,1,3,3.2,264.83,264.83,0,0,1,4.79,29.47,357.16,357.16,0,0,0,7.79,42.22c3.88,16.24,8.41,32.3,13,48.35a4.77,4.77,0,0,1,.4,2.59,8.7,8.7,0,0,1-2.74-1.37,446.43,446.43,0,0,0-101.49-43.18,358.45,358.45,0,0,0-49.49-10.39q-9.87-1.33-19.83-1.81c-2-.09-2-.1-2.05-2,0-.48,0-1,0-1.43q0-109.11,0-218.21a8.83,8.83,0,0,1,1.92-5.72c8.43-11.09,17.78-21.26,29.1-29.48,9.71-7,20.3-12.18,32.15-14.47,13.57-2.63,26.81-1.29,39.8,3.17,14.75,5.07,27.64,13.31,39.46,23.31a151.09,151.09,0,0,1,23,24c1,1.29,1.9,2.62,2.74,4a5.83,5.83,0,0,0,9.21,1.3,12.87,12.87,0,0,0,2.81-4.24,42.15,42.15,0,0,0,2.86-10.69c.2-1.28.45-2.56.67-3.85Z"/><path class="cls-1" d="M343,165.1a3.07,3.07,0,0,1-2.48.67c-19,.75-35.88,7.38-51,18.77a114.11,114.11,0,0,0-26.81,28.88,8.68,8.68,0,0,0-1.53,5q.27,85.91.47,171.81c.05,15.86.2,31.71.31,47.57,0,3.05,0,3-2.92,2.62a233,233,0,0,0-43.45-2,94.89,94.89,0,0,0-15.48,2c.27-.69.81-.91,1.29-1.21,7.25-4.5,11.19-11.19,12.7-19.4,1.76-9.63.46-19.09-1.92-28.46a45.31,45.31,0,0,0-6-13.45c-1.85-2.87-3.71-5.74-5.66-8.55C189.91,354.15,183.5,337.14,180,319c-1.39-7.18-2.4-14.41-3.21-21.67a29.06,29.06,0,0,1,.36-5.67c1.57-18.17,5.35-35.83,12.68-52.6,13.58-31.07,36.48-52.47,67.86-64.93a160.53,160.53,0,0,1,44.71-10.44,157.29,157.29,0,0,1,25-.5A147.07,147.07,0,0,1,343,165.1Z"/><path class="cls-1" d="M357,558.5c.49-3.69,1-6.82,1.29-10a17,17,0,0,1,.95-4.12c3.41-9.33,6.86-18.65,10.19-28,.54-1.52,1.22-2.11,2.83-2,5.67.35,11.35.6,17,.86,2.65.13,5.3.21,7.95.31s5.48.27,8.23.3c1.47,0,1.94.62,2,2.07.13,7.19.21,14.4.58,21.58.35,6.63.27,13.27.59,19.88.29,5.87.3,11.74.57,17.6.3,6.63.23,13.27.62,19.88.23,4.07,0,8.15.44,12.2a36,36,0,0,1,0,3.88c-1,.47-1.65-.1-2.32-.3q-9.68-2.8-19.48-5.13c-2.36-.56-2.33-.59-2.38-2.95-.18-8.43-.18-16.87-.61-25.29-.65-12.76-.43-25.52-.55-38.57-1.28,1.54-1.18,3.24-1.42,4.73a60.74,60.74,0,0,1-6.21,18.45c-5.94,11.54-11.76,23.15-17.83,34.63-.44.83-.94,1.63-1.41,2.42-.83-.25-.94-1-1.23-1.56-5.67-11-11.3-22.1-17-33.14-2-4-4.11-7.91-6.34-11.75-2-3.44-2.64-7.27-3.6-11-.5-2-.92-4-1.56-6a15.4,15.4,0,0,0-.05,5.7c.78,7.86.16,15.74.56,23.59.51,9.67,0,19.34.5,29,.09,1.87-.18,2.17-2.12,2-7.64-.78-15.29-1.08-23-1.18-2.35,0-4.71-.32-7.07-.35-.73,0-2,.49-2-.83s-.73-2.67.94-3.5c2.21-1.1,4.32-2.4,6.58-3.37a3.1,3.1,0,0,0,2.14-3.42c-.15-10.06-.19-20.12-.23-30.18s-.06-20.14.05-30.2a3.56,3.56,0,0,0-2.21-3.77c-2.12-1-4.15-2.28-6.19-3.47a3.88,3.88,0,0,1-1.06-4c.28-.49.78-.46,1.25-.46,5.51,0,11-.2,16.52.05,5.79.27,11.57,0,17.36.2,3.31.08,6.62.28,9.94.28,1.41,0,1.67.88,2.07,1.86,3.22,8,6.21,16.08,9.76,23.92,2.6,5.73,3.33,11.8,4.43,17.83A13.49,13.49,0,0,0,357,558.5Z"/><path class="cls-1" d="M88.61,652.11c.36-6.29-.09-12.54.58-18.77a13.38,13.38,0,0,0,0-1.42c.06-6,0-12,.23-17.92.36-8.34.25-16.68.61-25,.28-6.25.26-12.49.49-18.74.32-9,.61-18,.59-27,0-1.51.39-3,.4-4.51a3.22,3.22,0,0,0-1.42-2.87c-1.88-1.44-3.61-3.07-5.57-4.39A4.58,4.58,0,0,1,82.36,527c.15-3.23,0-3.27,3.39-3.59,11.1-1,22.2-2.18,33.33-3q11.44-.82,22.88-1.88a2.8,2.8,0,0,1,2.53.87c3.13,3.18,6.26,6.35,9.47,9.45a3.19,3.19,0,0,1,1,2.78c-.39,4.15,0,8.31-.49,12.48a76.75,76.75,0,0,0-.23,10.51c.09,3.42-.45,6.8-.41,10.21a3.76,3.76,0,0,1-1.12,2.51c-2.59,3.15-5.12,6.33-7.72,9.47a2.9,2.9,0,0,0-.52,3.32c3.94,10.15,8.07,20.21,12.24,30.26a2.61,2.61,0,0,0,2.43,2,25.09,25.09,0,0,1,3.64.59c.9.18,2.19,0,2.58.78a6.65,6.65,0,0,1,.13,3.91c-.14,1-1.19.82-1.85,1.06-7.4,2.62-14.75,5.35-22,8.28-1,.43-2.13.8-3.13,1.33-1.2.63-1.64.19-2-1-2.05-6.4-4.18-12.77-6.22-19.17-2-6.22-4-12.45-5.81-18.71-.42-1.42-1.13-1.54-2.28-1.17-2.79.9-5.57,1.83-8.37,2.69-.72.22-1.2.47-1.2,1.3,0,1-.4,2-.4,3.08,0,5.12.07,10.26-.2,15.37-.38,7.1-.37,14.2-.6,21.3-.08,2.35-.32,4.71-.3,7.07a2.12,2.12,0,0,1-1.23,2.27c-6.89,3.57-13.73,7.24-20.6,10.86C89.26,652.26,89.14,652.2,88.61,652.11Zm24.54-83.73c5.9-1.39,11.3-2.71,16.73-3.9a1.65,1.65,0,0,0,1.53-1.92,99,99,0,0,1,.29-10.77c.42-3.59,0-7.14.43-10.91-11.15,1.63-22,3.34-32.75,5.5,4,1.43,8.08,2.66,12.13,3.88,2.41.73,2.49.92,2.19,3.38C113.11,558.43,113.56,563.24,113.15,568.38Z"/><path class="cls-1" d="M21.06,698.18c0-2.33,0-4.4,0-6.46a4.47,4.47,0,0,1,.68-2.15c1-2,2.08-4,3.19-6a13.21,13.21,0,0,0,1.89-7.27c-.2-4.64-.16-9.31,0-13.95.44-16.51.21-33,.41-49.52.09-8,.07-15.94.13-23.91.05-7.39-.1-14.79.37-22.17a5.89,5.89,0,0,0-.25-2.91c-3.27.39-6.37,1.61-9.58,2.29-1.11.24-1.25,1.3-1.56,2.19-1.58,4.66-3.34,9.26-4.72,14-.72,2.49-1.89,4-4.59,4.09-.63-.57-.36-1.37-.36-2.07q0-24.35,0-48.71c0-2.71,0-2.74,2.52-3.05q22.1-2.81,44.19-5.57c5.45-.67,10.9-1.28,16.35-1.88,2.44-.27,2.6-.19,2.5,2.33-.4,10.61-.47,21.23-.62,31.84,0,2.16-.36,4.34-.28,6.51.06,1.69-1.16,1.66-2.22,2s-1.91.31-2.5-1c-1.47-3.18-3.15-6.26-4.62-9.44-.56-1.2-1-1.76-2.51-1.34-2.36.68-4.8,1.07-7.2,1.59-1.13.25-1.95.75-1.68,2.11a1.31,1.31,0,0,1,0,.28c.29,9.87-.44,19.72-.4,29.58,0,8.44.1,16.9-.21,25.33-.48,13-.43,26-.59,39,0,3.11-.27,6.23-.34,9.35,0,1.23.29,2.08,1.52,2.32,4.08.78,4.34,3.65,4,7a2.68,2.68,0,0,1-1.27,2.29C42.53,682,32.15,689.78,22,697.84A4.76,4.76,0,0,1,21.06,698.18Z"/><path class="cls-1" d="M417.89,516.56c6.29.39,12.51.76,18.73,1.17q8.92.59,17.84,1.26c7.26.54,14.52,1.14,21.78,1.71a3.87,3.87,0,0,1,2.89,1.56q4.85,6.12,9.81,12.16a4.94,4.94,0,0,1,1.12,3.09c.44,7.48.31,15,.61,22.44.28,7.21.42,14.4.54,21.61,0,2.16.35,4.32.36,6.51a3.56,3.56,0,0,1-1.54,3.34c-2.82,2.08-5.48,4.37-8.11,6.68a4.2,4.2,0,0,1-4.79.86c-7.62-2.81-15.37-5.27-23.14-7.63-.45-.13-.91-.2-1.75-.37.4,12.62.79,25,1.18,37.55-1.8-.13-3.08-1-4.47-1.54-5.66-2.15-11.29-4.37-17-6.43a2.38,2.38,0,0,1-1.86-2.64c0-9.76-.58-19.51-.81-29.27-.14-6-.2-11.94-.54-17.89-.34-6.15-.27-12.31-.58-18.45-.3-5.87-.44-11.74-.52-17.61,0-1.89-.54-3.75-.37-5.66.07-.78-.48-1.15-1-1.56a60.8,60.8,0,0,0-5.67-4.26C418,521.7,417,519.77,417.89,516.56Zm18.66,21.38c1.49.76,3,1.52,4.48,2.3s3,1.61,4.52,2.38c5.54,2.79,5.48,2.78,5.56,8.92.08,5.67,0,11.35.52,17,.1,1.08.27,1.74,1.44,2,4.51,1.07,9,2.21,13.5,3.35,1.08.27,1.66,0,1.56-1.23-.13-1.5-.33-3-.37-4.51-.21-8.23-.44-16.46-.54-24.69,0-1.57-.59-2.23-2-2.4-.37,0-.75-.08-1.12-.14-6.45-.92-12.88-2-19.35-2.71C442,537.93,439.36,537.23,436.55,537.94Z"/><path class="cls-1" d="M243.94,583.54l15-1.31c2.35-.21,2.36-.21,2.38-2.49.07-8.16.18-16.32.19-24.49,0-11.38.64-22.75.4-34.13,0-2,.19-4,.15-6,0-1.29.31-1.89,1.73-1.89q9.54,0,19.06-.25c1.49,0,1.93.45,1.92,1.93-.06,9.12.07,18.24-.05,27.35-.19,14.32-.48,28.64-.33,43a3.28,3.28,0,0,1-1.35,2.88c-3.17,2.55-6.28,5.18-9.37,7.82a5.7,5.7,0,0,1-3.6,1.29c-10.47.6-20.9,1.65-31.27,3.25-1.68.26-3.38.42-5,.75a3.27,3.27,0,0,1-2.66-.59c-3.2-2.2-6.4-4.41-9.66-6.52a2.35,2.35,0,0,1-1.14-2.37q.39-13.07.75-26.14c0-.38,0-.76,0-1.14,0-10.72.71-21.42.6-32.14,0-2.07.35-4.13.41-6.22a3.34,3.34,0,0,0-2.13-3.51c-1.94-1-3.78-2.15-5.64-3.28a4,4,0,0,1-1.07-4.23c.47-.79,1.3-.66,2-.68,2.46,0,4.92-.1,7.39-.22,5.11-.24,10.23-.24,15.35-.37,1.79,0,3.59-.13,5.39-.24,1.1-.07,1.53.39,1.47,1.49-.18,3,.31,6.06-.31,9.08a8.73,8.73,0,0,0-.08,1.7c-.06,9.11.1,18.23-.25,27.33s-.29,18.38-.5,27.57A5.53,5.53,0,0,0,243.94,583.54Z"/><path class="cls-1" d="M176.15,614.63a60,60,0,0,1,.21-8.58c.27-4.06.12-8.15.26-12.22.24-7.28.36-14.57.63-21.85.22-6,.28-11.92.55-17.86.28-6.34.28-12.69.58-19,.27-5.67.46-11.33.47-17,0-1.48.45-1.94,1.92-2,6.62-.2,13.23-.52,19.85-.8,2-.08,2.24-.06,2,1.76-.5,4.06-.18,8.13-.43,12.19,0,.57-.1,1.13-.1,1.7,0,9.09-.46,18.17-.66,27.26-.14,6.91-.25,13.82-.55,20.72-.29,6.72-.38,13.44-.56,20.15-.07,2.35-.44,4.72-.28,7.07.11,1.6-.67,2.09-2,2.43q-8,2.05-15.9,4.23C180.26,613.33,178.39,614,176.15,614.63Z"/><path class="cls-2" d="M314,643.22c3,0,6.07,0,9.1,0a4.66,4.66,0,0,1,3.42,1.58,7.92,7.92,0,0,1,2.71,7.28,52.71,52.71,0,0,0,0,7.11c.08,1.81-.2,3.37-1.8,4.46s-1.73,2.41-1,4.18c1.45,3.59,2.73,7.25,4,10.9a4.11,4.11,0,0,0,2.44,2.58,1.39,1.39,0,0,1,1,1.77c-.25.9-1.05.64-1.66.65-2.08,0-4.18-.1-6.25,0-1.65.12-2.35-.52-2.8-2.06-1.27-4.35-2.69-8.65-4-13-.22-.71-.21-1.64-1.15-1.75a10.8,10.8,0,0,0-3.11,0c-.67.12-.48.93-.48,1.47,0,4.17,0,8.35,0,12.52,0,2.7,0,2.77-2.55,2.71-1.86-.05-4.23.82-5.46-.49S306,679.76,306,678c0-9.29-.06-18.58,0-27.88,0-1.85-.26-3.34-2-4.23-.25-.13-.41-.41-.65-.55a1.21,1.21,0,0,1-.7-1.4c.18-.72.83-.68,1.39-.68Zm-5.05,7.4c.49.4.74.75,1.05.83,3.35.81,5.23,2.61,4.38,6.33a1.31,1.31,0,0,0,0,.28c0,.87.46,1.15,1.24,1.15,1.41,0,2.83,0,4.24,0,.94,0,1.37-.4,1.35-1.36,0-1.69,0-3.39,0-5.09,0-2.09-.05-2.12-2.25-2.14C315.7,650.6,312.5,650.62,308.9,650.62Z"/><path class="cls-2" d="M230,665.2c0-5.12-.05-10.25,0-15.37,0-1.67-.27-3-1.88-3.75-.33-.16-.55-.54-.87-.72a1.25,1.25,0,0,1-.64-1.44c.14-.76.79-.7,1.34-.7,6.55,0,13.09,0,19.64,0a2.73,2.73,0,0,1,2.24,1,2,2,0,0,0,.2.21c2.92,3.11,2.92,3.11,2.92,7.47,0,2.56-.09,5.13,0,7.69.08,1.64-.22,3-1.62,4-1.78,1.19-1.72,2.66-1,4.46,1.39,3.52,2.68,7.08,3.93,10.65a4.06,4.06,0,0,0,2.39,2.62c.71.3,1.42.69,1.16,1.67s-1.19.76-1.88.77c-2.19,0-4.37-.05-6.55,0a2,2,0,0,1-2.24-1.62c-1.28-4.26-2.64-8.49-3.94-12.74-.8-2.59-.85-2.58-3.51-2.53-1.26,0-1.63.47-1.61,1.68.07,3.22.1,6.45,0,9.68-.06,1.75.84,4-.46,5.16-1.15,1-3.28.25-5,.34-.48,0-1,0-1.43,0-1,0-1.3-.5-1.29-1.42,0-2,0-4,0-6Zm2.81-14.58a14.15,14.15,0,0,0,4,2.11,2,2,0,0,1,1.37,1.86c.14,1.51-1,3.58.68,4.41,1.3.65,3.16.16,4.76.22.95,0,1.39-.32,1.37-1.31,0-1.9-.06-3.8,0-5.7.05-1.26-.46-1.63-1.67-1.61C240,650.66,236.63,650.62,232.81,650.62Z"/><path class="cls-2" d="M222.59,661.25c0,5.22,0,10.44,0,15.66,0,3.29-3.56,6.79-6.86,6.8-3.13,0-6.27-.05-9.4,0a5.13,5.13,0,0,1-3.66-1.6c-2.52-2.1-2.77-4.62-2.72-7.57.12-8.16,0-16.32.08-24.48,0-1.87-.32-3.31-2-4.27a3.35,3.35,0,0,1-1.24-1.12c-.31-.5-.26-1.31.46-1.34,3.31-.1,6.63-.08,9.94-.07.56,0,.78.45.8,1s0,1.32,0,2q0,13.8,0,27.61c0,2.36,0,2.41,2.33,2.39,4.69,0,3.9.55,3.92-3.87.05-8.92,0-17.84,0-26.76,0-2.35,0-2.42,2.31-2.38,1.88,0,4.2-.79,5.53.36s.44,3.56.48,5.41C222.66,653.09,222.59,657.17,222.59,661.25Z"/><path class="cls-2" d="M147.24,651.14a18.72,18.72,0,0,0,2.65.93c1.44.25,1.71,1.1,1.7,2.42-.06,6.46,0,12.91,0,19.36,0,2.37,0,2.4,2.32,2.41,4.4,0,3.69.28,3.75-3.54,0-1.52,0-3,0-4.55,0-1,.41-1.34,1.36-1.29,2.27.1,4.55-.17,6.81.15.83,2.1.18,4.29.38,6.43,0,.28,0,.57,0,.85.62,3.44-.7,6-3.38,8.1a4.63,4.63,0,0,1-3.23,1.33c-3.42-.09-6.84-.07-10.25,0a4.28,4.28,0,0,1-2.93-1.28c-2.81-2.21-3.58-4.89-3.47-8.4.26-8.06.12-16.14,0-24.2a4.31,4.31,0,0,1,1.57-3.71c1.55-1.29,2.56-3.19,5.14-3,3.31.26,6.64.1,10,.05a3.93,3.93,0,0,1,3,1.23c3.49,3.36,3.52,3.34,3.52,8.31,0,1.42,0,2.85,0,4.27,0,1-.4,1.34-1.34,1.33-2,0-4,0-6,0-1.06,0-1.25-.53-1.23-1.41,0-1.62,0-3.23,0-4.85,0-.73-.18-1.26-1-1.4A62.09,62.09,0,0,0,147.24,651.14Z"/><path class="cls-2" d="M416.43,650.66a2,2,0,0,0,1.62,1.19c2.75.77,2.42.55,2.43,3.56,0,6.16,0,12.33,0,18.5,0,2.31,0,2.35,2.38,2.35,4.32,0,3.59.29,3.72-3.6.06-1.86-.88-4.26.44-5.43s3.63-.24,5.5-.34c.48,0,1,0,1.43,0,.84,0,1.16.4,1.15,1.22q0,5,0,10a2.56,2.56,0,0,1-.84,1.73c-3.41,3.91-3.4,3.91-8.68,3.91h-4.27c-5.25,0-5.23,0-8.64-4a3.23,3.23,0,0,1-.75-2.33q0-14.1,0-28.19a2.71,2.71,0,0,1,1-2.5,4,4,0,0,0,.79-.81,6.58,6.58,0,0,1,6.38-2.75,64.87,64.87,0,0,0,8.25,0,4.38,4.38,0,0,1,3.5,1.48c3.23,3.25,3.26,3.21,3.26,7.84,0,1,0,2.09,0,3.14,0,2.9.27,2.71-2.82,2.67-1.79,0-4,.72-5.25-.3s-.34-3.38-.45-5.14c-.14-2.15-.08-2.19-2.26-2.21C421.78,650.64,419.23,650.66,416.43,650.66Z"/><path class="cls-2" d="M192.58,663.25c0,4.64-.06,9.28,0,13.92a4.22,4.22,0,0,1-1.58,3.71,17.09,17.09,0,0,0-1.81,1.8,2.88,2.88,0,0,1-2.25,1c-3.69,0-7.39,0-11.08,0a3.25,3.25,0,0,1-2.29-.9c-2.3-2-3.66-4.14-3.53-7.53.3-8.33.09-16.67.1-25a7,7,0,0,1,7.1-7c3,0,6.06.09,9.09,0a4.8,4.8,0,0,1,3.92,1.78,7.74,7.74,0,0,1,2.36,6.31C192.4,655.28,192.58,659.27,192.58,663.25Zm-19.09-12.63-.14.42a12.23,12.23,0,0,0,2.46,1.27c2.33.59,2.63,2.12,2.57,4.23-.13,5.31-.08,10.62,0,15.94.05,4.21-.92,3.81,4,3.82,2,0,2.07-.06,2.07-2q0-10.82,0-21.63c0-1.94,0-2-2.12-2C179.36,650.59,176.43,650.62,173.49,650.62Z"/><path class="cls-2" d="M278,651.74c1.4.4,2.44.76,3.51,1a1.7,1.7,0,0,1,1.52,2c0,1.3-.59,3,.28,3.83s2.7.29,4.1.35c1.61.07,3.23.08,4.84,0,1.28-.07,1.62.48,1.59,1.67-.19,6.68,1.07,5.32-5.23,5.48-1.42,0-2.84,0-4.26,0-1,0-1.36.39-1.35,1.34,0,2.28,0,4.56,0,6.83,0,1.08.57,1.22,1.44,1.22,2.46,0,4.95.2,7.39-.07s3.87.74,4.81,2.86c.41.95,1,1.81,1.48,2.75,1,2.09.63,2.72-1.65,2.72-6.45,0-12.9,0-19.35,0-2.64,0-2.65,0-2.66-2.6V649c0-1.42,0-2.85,0-4.27,0-1.12.47-1.48,1.53-1.47,7,0,14,0,21.06,0,1.43,0,2,.73,1.4,1.94a57,57,0,0,1-3.12,5.41c-.53.84-1.52.64-2.36.65-4.08,0-8.15,0-12.23,0A4.17,4.17,0,0,0,278,651.74Z"/><path class="cls-2" d="M354.6,650.62c1.48,1.18,2.83,1.28,4,1.73a1.89,1.89,0,0,1,1.49,2.08c-.08,1,0,2.09,0,3.13-.09,1.24.46,1.68,1.65,1.66,2.28,0,4.56.1,6.83,0,2.8-.16,4.05,2.17,6,3.44,1.37.92.93,2.37.94,3.66,0,3.79,0,7.59,0,11.38,0,1.14-.16,2.06-1.25,2.62a1.67,1.67,0,0,0-.41.39,8.55,8.55,0,0,1-8.1,3,21.64,21.64,0,0,0-3.12,0c-5.78,0-5.77,0-9.81-3.78a2.31,2.31,0,0,1-.88-2c.13-1.87-.77-4.21.37-5.49s3.4-.28,5.18-.41a13,13,0,0,1,2.25.07.49.49,0,0,1,.3.49c.17,3.15.17,3.17,3.32,3.16,4.71,0,3.92.41,3.94-3.9,0-1.57.69-3.55-.41-4.63s-2.89-.25-4.39-.32a32.62,32.62,0,0,0-3.7,0,4.39,4.39,0,0,1-3.56-1.33c-4-3.74-3.21-1.89-3.29-7.43-.05-2.85.07-5.7,0-8.54a3.88,3.88,0,0,1,1.48-3.47,15.46,15.46,0,0,0,1.82-1.8,3,3,0,0,1,2.5-1.08q5.55,0,11.1,0a3.69,3.69,0,0,1,2.61.9q1.59,1.43,3.2,2.81c.44.38.9.72.86,1.38-.11,1.78.66,3.87-.36,5.26-.85,1.16-2.84.27-4.32.43-.47.05-1,0-1.42,0-1.29.09-2.29-.09-2.06-1.78.21-1.52-.76-1.67-1.93-1.65-1.71,0-3.42,0-5.13,0Z"/><path class="cls-2" d="M447,672c.41,3.73.41,3.74,4,3.73,4.16,0,3.41.17,3.47-3.52,0-1.24-.06-2.48,0-3.7s-.37-1.69-1.62-1.66c-2.37.07-4.74,0-7.11,0-3.24,0-6.66-3.47-6.67-6.66,0-3.51.06-7,0-10.53a5,5,0,0,1,1.38-3.52,7.58,7.58,0,0,1,7.18-3,53.75,53.75,0,0,0,7.4,0,4.9,4.9,0,0,1,4.33,1.64,2,2,0,0,0,.65.54c3.38,1.71,2.67,4.81,2.6,7.68,0,.74-.51.93-1.14.93-1.71,0-3.42,0-5.12,0-1.26.06-2.06-.23-1.86-1.7s-.58-1.76-1.85-1.75c-3.46,0-6.92,0-10.88,0a9.35,9.35,0,0,0,3.69,1.59c1.18.4,1.93.95,1.85,2.41s-.64,3.21.28,4.13c1.13,1.13,3.07.32,4.65.46a7,7,0,0,0,1.71,0c2.68-.43,4.63.76,6.63,2.42a5.13,5.13,0,0,1,2.12,4.58c-.14,3.79-.09,7.59,0,11.38a3.73,3.73,0,0,1-1.35,2.89,9.65,9.65,0,0,1-8.61,3.24,36.05,36.05,0,0,0-6,0c-1.64.08-2.77-.67-4.09-1.54a7.36,7.36,0,0,1-3.61-7.85c.31-2.23.08-2.27,2.38-2.29Z"/><path class="cls-2" d="M395.08,674.64c.45-3.53.83-7.06,1.35-10.58.95-6.35,2-12.68,2.95-19,.22-1.45.93-1.89,2.29-1.82s2.85,0,4.27,0c2.07,0,2.23.23,1.82,2.37q-3.42,18-6.9,35.92c-.42,2.18-.46,2.18-2.73,2.2s-4.37-.05-6.55,0c-1.26,0-1.83-.35-2.07-1.69-1-5.58-2.13-11.13-3.19-16.7-1-5.39-2.08-10.77-3-16.17a4,4,0,0,0-1.89-2.95,8.17,8.17,0,0,1-1.58-1.21,1,1,0,0,1,.72-1.75c2-.09,4,0,6,0,4,0,4.07,0,4.69,3.9,1.13,7.18,2.27,14.36,3.32,21.56.29,2,.27,4,.38,6Z"/><path class="cls-2" d="M261.91,663.47c0-6.07,0-12.13,0-18.19,0-2,.05-2,2-2.06q2.13,0,4.26,0c2.18,0,2.22.06,2.23,2.2,0,4.73,0,9.47,0,14.2q0,10.95,0,21.88c0,2.15-.05,2.21-2.22,2.19-2,0-4.44.82-5.79-.34s-.48-3.73-.51-5.68C261.86,672.94,261.91,668.2,261.91,663.47Z"/><path class="cls-3" d="M397,32l-.28.31c0-.08-.06-.17,0-.23.1-.22.23-.21.36,0Z"/></svg>